<svg xmlns="http://www.w3.org/2000/svg" viewBox="0 0 512 512"><!--!Font Awesome Pro 6.7.2 by @fontawesome - https://fontawesome.com License - https://fontawesome.com/license (Commercial License) Copyright 2025 Fonticons, Inc.--><path class="fa-secondary" opacity=".4" d="M176 32H48A48 48 0 0 0 0 80v128a48 48 0 0 0 48 48h80v64a64.1 64.1 0 0 1 -64 64h-8a23.9 23.9 0 0 0 -24 23.9V456a23.9 23.9 0 0 0 23.9 24H64a160 160 0 0 0 160-160V80a48 48 0 0 0 -48-48z"/><path class="fa-primary" d="M464 32H336a48 48 0 0 0 -48 48v128a48 48 0 0 0 48 48h80v64a64.1 64.1 0 0 1 -64 64h-8a23.9 23.9 0 0 0 -24 23.9V456a23.9 23.9 0 0 0 23.9 24H352a160 160 0 0 0 160-160V80a48 48 0 0 0 -48-48z"/></svg>